<mxfile host="app.diagrams.net" modified="2023-12-03T14:08:16.679Z" agent="Mozilla/5.0 (Windows NT 10.0; Win64; x64) AppleWebKit/537.36 (KHTML, like Gecko) Chrome/119.0.0.0 Safari/537.36" etag="48F02jB_iRmGY6EsFpvJ" version="22.1.5" type="device">
  <diagram id="C5RBs43oDa-KdzZeNtuy" name="Page-1">
    <mxGraphModel dx="1120" dy="478" grid="1" gridSize="10" guides="1" tooltips="1" connect="1" arrows="1" fold="1" page="1" pageScale="1" pageWidth="827" pageHeight="1169" math="0" shadow="0">
      <root>
        <mxCell id="WIyWlLk6GJQsqaUBKTNV-0" />
        <mxCell id="WIyWlLk6GJQsqaUBKTNV-1" parent="WIyWlLk6GJQsqaUBKTNV-0" />
        <mxCell id="wcBtKA3A2Ehk8yw9U1C2-2" value="" style="edgeStyle=orthogonalEdgeStyle;rounded=0;orthogonalLoop=1;jettySize=auto;html=1;" edge="1" parent="WIyWlLk6GJQsqaUBKTNV-1" source="wcBtKA3A2Ehk8yw9U1C2-0" target="wcBtKA3A2Ehk8yw9U1C2-1">
          <mxGeometry relative="1" as="geometry" />
        </mxCell>
        <mxCell id="wcBtKA3A2Ehk8yw9U1C2-0" value="start" style="ellipse;whiteSpace=wrap;html=1;" vertex="1" parent="WIyWlLk6GJQsqaUBKTNV-1">
          <mxGeometry x="60" y="160" width="120" height="80" as="geometry" />
        </mxCell>
        <mxCell id="wcBtKA3A2Ehk8yw9U1C2-4" value="" style="edgeStyle=orthogonalEdgeStyle;rounded=0;orthogonalLoop=1;jettySize=auto;html=1;entryX=0.5;entryY=0;entryDx=0;entryDy=0;" edge="1" parent="WIyWlLk6GJQsqaUBKTNV-1" source="wcBtKA3A2Ehk8yw9U1C2-1" target="wcBtKA3A2Ehk8yw9U1C2-5">
          <mxGeometry relative="1" as="geometry">
            <mxPoint x="380" y="350" as="targetPoint" />
          </mxGeometry>
        </mxCell>
        <mxCell id="wcBtKA3A2Ehk8yw9U1C2-1" value="struct Student sv" style="shape=parallelogram;perimeter=parallelogramPerimeter;whiteSpace=wrap;html=1;fixedSize=1;" vertex="1" parent="WIyWlLk6GJQsqaUBKTNV-1">
          <mxGeometry x="60" y="280" width="120" height="60" as="geometry" />
        </mxCell>
        <mxCell id="wcBtKA3A2Ehk8yw9U1C2-5" value="&lt;div&gt;inputStudent(&amp;amp;sv);&lt;/div&gt;&lt;div&gt;outputStudent(&amp;amp;sv);&lt;span style=&quot;&quot;&gt;&lt;/span&gt;&lt;/div&gt;" style="shape=process;whiteSpace=wrap;html=1;backgroundOutline=1;" vertex="1" parent="WIyWlLk6GJQsqaUBKTNV-1">
          <mxGeometry x="45" y="380" width="150" height="60" as="geometry" />
        </mxCell>
        <mxCell id="wcBtKA3A2Ehk8yw9U1C2-9" value="" style="edgeStyle=orthogonalEdgeStyle;rounded=0;orthogonalLoop=1;jettySize=auto;html=1;" edge="1" parent="WIyWlLk6GJQsqaUBKTNV-1" source="wcBtKA3A2Ehk8yw9U1C2-7" target="wcBtKA3A2Ehk8yw9U1C2-8">
          <mxGeometry relative="1" as="geometry" />
        </mxCell>
        <mxCell id="wcBtKA3A2Ehk8yw9U1C2-7" value="inputStudent(struct Student *sv)" style="rounded=0;whiteSpace=wrap;html=1;" vertex="1" parent="WIyWlLk6GJQsqaUBKTNV-1">
          <mxGeometry x="280" y="160" width="120" height="60" as="geometry" />
        </mxCell>
        <mxCell id="wcBtKA3A2Ehk8yw9U1C2-8" value="printf(&quot;Nhap ho va ten sinh vien:&quot;)&lt;br&gt;printf(&quot;Nhap tuoi: &quot;)&lt;br&gt;printf(&quot;Nhap so dien thoai: &quot;)&lt;br&gt;printf(&quot;Nhap email: &quot;)" style="shape=parallelogram;perimeter=parallelogramPerimeter;whiteSpace=wrap;html=1;fixedSize=1;" vertex="1" parent="WIyWlLk6GJQsqaUBKTNV-1">
          <mxGeometry x="225" y="260" width="230" height="80" as="geometry" />
        </mxCell>
        <mxCell id="wcBtKA3A2Ehk8yw9U1C2-12" value="" style="edgeStyle=orthogonalEdgeStyle;rounded=0;orthogonalLoop=1;jettySize=auto;html=1;" edge="1" parent="WIyWlLk6GJQsqaUBKTNV-1" source="wcBtKA3A2Ehk8yw9U1C2-10" target="wcBtKA3A2Ehk8yw9U1C2-11">
          <mxGeometry relative="1" as="geometry" />
        </mxCell>
        <mxCell id="wcBtKA3A2Ehk8yw9U1C2-10" value="outputStudent(struct Student *sv)" style="rounded=0;whiteSpace=wrap;html=1;" vertex="1" parent="WIyWlLk6GJQsqaUBKTNV-1">
          <mxGeometry x="570" y="160" width="120" height="60" as="geometry" />
        </mxCell>
        <mxCell id="wcBtKA3A2Ehk8yw9U1C2-11" value="&lt;div&gt;printf(&quot;Ho va ten: %s\n&quot;,sv-&amp;gt;fullName);&lt;/div&gt;&lt;div&gt;printf(&quot;Tuoi: %d\n&quot;,sv-&amp;gt;age);&lt;span style=&quot;&quot;&gt;&lt;/span&gt;&lt;/div&gt;&lt;div&gt;&lt;span style=&quot;&quot;&gt;&lt;span style=&quot;&quot;&gt;&lt;span style=&quot;white-space: pre;&quot;&gt;&amp;nbsp;&amp;nbsp;&amp;nbsp;&amp;nbsp;&lt;/span&gt;&lt;/span&gt;printf(&quot;SDT: %s\n&quot;,sv-&amp;gt;phoneNumber);&lt;/span&gt;&lt;/div&gt;&lt;div&gt;&lt;span style=&quot;&quot;&gt;&lt;span style=&quot;&quot;&gt;&lt;span style=&quot;white-space: pre;&quot;&gt;&amp;nbsp;&amp;nbsp;&amp;nbsp;&amp;nbsp;&lt;/span&gt;&lt;/span&gt;printf(&quot;Email: %s\n&quot;,sv-&amp;gt;email);&lt;/span&gt;&lt;/div&gt;" style="shape=parallelogram;perimeter=parallelogramPerimeter;whiteSpace=wrap;html=1;fixedSize=1;" vertex="1" parent="WIyWlLk6GJQsqaUBKTNV-1">
          <mxGeometry x="502.5" y="260" width="255" height="80" as="geometry" />
        </mxCell>
      </root>
    </mxGraphModel>
  </diagram>
</mxfile>
